<svg width="122" height="132" viewBox="0 0 122 132" fill="none" xmlns="http://www.w3.org/2000/svg">
<g filter="url(#filter0_d_105_1340)">
<path d="M82.499 0.0175781C89.7915 0.266491 99.9486 2.69205 107.567 9.25C115.47 16.0524 120.568 27.2389 117.019 44.8057C111.997 69.6545 93.7364 79.7906 76.8281 83.7061C68.3766 85.6631 60.2435 86.073 54.2275 85.9951C51.2186 85.9562 48.7357 85.7951 47.0039 85.6436C46.1381 85.5678 45.459 85.495 44.9961 85.4404C44.905 85.4297 44.8222 85.4184 44.748 85.4092C44.7049 85.6169 44.6482 85.8937 44.5781 86.2324C44.4082 87.0543 44.1636 88.2444 43.8643 89.7148C43.2654 92.6563 42.4478 96.7221 41.5742 101.217C39.8261 110.211 37.855 120.912 36.9551 127.773L36.8984 128.208H0L0.105469 127.62L22.8857 0.412109L22.959 0H81.8018L82.499 0.0175781ZM48.3848 15.9287C47.665 15.9961 46.9761 16.2556 46.3906 16.6797C45.8054 17.1037 45.344 17.6771 45.0557 18.3398C44.7674 19.0028 44.662 19.7318 44.751 20.4492C44.84 21.1667 45.12 21.8475 45.5615 22.4199L59.3809 40.3574L44.9131 57.7734C44.4269 58.3586 44.1159 59.0701 44.0156 59.8242C43.9155 60.5784 44.0302 61.3462 44.3467 62.0381C44.6633 62.7299 45.1685 63.3191 45.8047 63.7363C46.4411 64.1536 47.1835 64.3819 47.9443 64.3965L72.1865 64.8438C72.7914 64.8545 73.3914 64.7285 73.9414 64.4766C74.4915 64.2245 74.9783 63.8519 75.3652 63.3867L91.8994 43.4824C92.4861 42.7766 92.815 41.8913 92.832 40.9736C92.8489 40.0558 92.5526 39.1597 91.9922 38.4326L76.2031 17.9326C75.8336 17.4533 75.3609 17.0633 74.8203 16.791C74.2798 16.5188 73.6851 16.3709 73.0801 16.3594L48.8379 15.9131L48.3848 15.9287Z" fill="#CCFF33"/>
</g>
<defs>
<filter id="filter0_d_105_1340" x="0" y="0" width="121.168" height="131.208" filterUnits="userSpaceOnUse" color-interpolation-filters="sRGB">
<feFlood flood-opacity="0" result="BackgroundImageFix"/>
<feColorMatrix in="SourceAlpha" type="matrix" values="0 0 0 0 0 0 0 0 0 0 0 0 0 0 0 0 0 0 127 0" result="hardAlpha"/>
<feOffset dx="3" dy="3"/>
<feComposite in2="hardAlpha" operator="out"/>
<feColorMatrix type="matrix" values="0 0 0 0 0 0 0 0 0 0 0 0 0 0 0 0 0 0 1 0"/>
<feBlend mode="normal" in2="BackgroundImageFix" result="effect1_dropShadow_105_1340"/>
<feBlend mode="normal" in="SourceGraphic" in2="effect1_dropShadow_105_1340" result="shape"/>
</filter>
</defs>
</svg>
