<svg width="497" height="540" viewBox="0 0 497 540" fill="none" xmlns="http://www.w3.org/2000/svg">
<path d="M345.622 0.0292969C376.326 0.793507 419.771 10.8666 452.162 38.748C485.105 67.1048 506.54 113.82 491.621 187.65C470.547 291.938 393.982 334.506 322.783 350.993C287.186 359.236 252.912 360.968 227.54 360.64C214.853 360.475 204.388 359.796 197.095 359.157C193.448 358.838 190.594 358.529 188.65 358.3C187.679 358.185 186.934 358.091 186.433 358.024C186.322 358.01 186.222 357.995 186.135 357.983C186.087 358.213 186.022 358.528 185.939 358.924C185.749 359.84 185.468 361.191 185.108 362.931C184.389 366.41 183.352 371.446 182.085 377.671C179.55 390.121 176.091 407.328 172.394 426.353C164.997 464.408 156.649 509.726 152.834 538.816L152.777 539.251H0L0.105469 538.663L96.4941 0.412109L96.5684 0H344.17L345.622 0.0292969ZM202.801 65.7773C199.755 66.0623 196.84 67.1593 194.362 68.9541C191.885 70.7489 189.933 73.1758 188.713 75.9814C187.493 78.787 187.048 81.8691 187.424 84.9053C187.8 87.9414 188.985 90.8215 190.854 93.2441L249.327 169.142L188.113 242.833C186.055 245.309 184.737 248.318 184.312 251.51C183.888 254.702 184.373 257.95 185.713 260.878C187.053 263.806 189.193 266.297 191.886 268.062C194.579 269.828 197.716 270.798 200.936 270.859L303.511 272.75C306.072 272.796 308.61 272.265 310.938 271.198C313.267 270.131 315.326 268.555 316.964 266.585L386.922 182.367C389.405 179.38 390.798 175.635 390.869 171.751C390.941 167.867 389.688 164.074 387.316 160.997L320.509 74.2578C318.945 72.2295 316.945 70.5779 314.658 69.4258C312.371 68.2738 309.853 67.6494 307.292 67.6006L204.718 65.71L202.801 65.7773Z" fill="#94C600"/>
</svg>
